
<svg xmlns="http://www.w3.org/2000/svg" version="1.1" xmlns:xlink="http://www.w3.org/1999/xlink" preserveAspectRatio="none" x="0px" y="0px" width="1024px" height="1024px" viewBox="0 0 1024 1024">
<defs>
<g id="Layer0_0_MEMBER_0_MEMBER_0_FILL">
<path fill="#FEDE5C" stroke="none" d="
M 201.35 33.7
Q 201.35 31.7 199.95 30.25 198.55 28.85 196.5 28.85 194.5 28.85 193.05 30.25 191.65 31.7 191.65 33.7 191.65 35.75 193.05 37.15 194.5 38.55 196.5 38.55 198.55 38.55 199.95 37.15 201.35 35.75 201.35 33.7 Z"/>
</g>

<g id="Layer0_0_MEMBER_0_MEMBER_1_FILL">
<path fill="#D2B857" stroke="none" d="
M 252.75 18.45
Q 252.75 17.8 252.1 17.8 251.45 17.8 251.45 18.45 251.45 19.1 252.1 19.1 252.75 19.1 252.75 18.45 Z"/>
</g>

<g id="Layer0_0_MEMBER_0_MEMBER_2_FILL">
<path fill="#D2B857" stroke="none" d="
M 251.45 21.6
Q 251.45 20.75 250.6 20.75 249.7 20.75 249.7 21.6 249.7 22.45 250.6 22.45 250.95 22.45 251.2 22.2 251.45 21.95 251.45 21.6 Z"/>
</g>

<g id="Layer0_0_MEMBER_0_MEMBER_3_FILL">
<path fill="#D2B857" stroke="none" d="
M 256.95 21.65
Q 256.95 21 256.25 21 255.6 21 255.6 21.65 255.6 22.35 256.25 22.35 256.95 22.35 256.95 21.65 Z"/>
</g>

<g id="Layer0_0_MEMBER_0_MEMBER_4_FILL">
<path fill="#D2B857" stroke="none" d="
M 254.65 23.9
Q 254.65 23.2 253.95 23.2 253.25 23.2 253.25 23.9 253.25 24.6 253.95 24.6 254.65 24.6 254.65 23.9 Z"/>
</g>

<g id="Layer0_0_MEMBER_0_MEMBER_5_FILL">
<path fill="#D2B857" stroke="none" d="
M 255.6 18.75
Q 255.6 18.35 255.2 18.35 254.8 18.35 254.8 18.75 254.8 19.15 255.2 19.15 255.6 19.15 255.6 18.75 Z"/>
</g>

<g id="Layer0_0_MEMBER_0_MEMBER_6_FILL">
<path fill="#D2B857" stroke="none" d="
M 253.6 20.65
Q 253.6 20.25 253.2 20.25 252.8 20.25 252.8 20.65 252.8 21.05 253.2 21.05 253.6 21.05 253.6 20.65 Z"/>
</g>

<g id="Layer0_0_MEMBER_1_FILL">
<path fill="#000000" fill-opacity="0.2" stroke="none" d="
M 320.15 49.25
Q 320.15 47.25 318.75 45.8 317.75 44.8 316.5 44.55 317.8 45.95 317.8 47.9 317.8 49.95 316.4 51.35 315 52.75 312.95 52.75 312.35 52.75 311.8 52.65
L 311.85 52.7
Q 313.3 54.1 315.3 54.1 317.35 54.1 318.75 52.7 320.15 51.3 320.15 49.25 Z"/>
</g>

<g id="Layer0_0_MEMBER_2_FILL">
<path fill="#117E92" stroke="none" d="
M 261.9 68.15
Q 258.1 67.45 254.5 68.4 258.5 74 264.5 77.2 270.75 80.5 277.85 80.5 279.3 80.5 281.9 80.2 275.45 76.85 268.25 71.05 265.75 68.85 261.9 68.15 Z"/>
</g>

<g id="Layer0_0_MEMBER_3_FILL">
<path fill="#22AAB9" stroke="none" d="
M 268.25 71.05
Q 275.45 76.85 281.9 80.2 289.65 79.1 295.8 74.2 301.85 69.35 304.65 62.15 295.7 68.55 292.6 69.75 285.5 72.4 278.85 67.8 272.75 63.1 269.7 60.85 264.25 56.9 259.3 56.4 254.35 55.75 249.55 56.65 250.75 63.1 254.5 68.4 258.1 67.45 261.9 68.15 265.75 68.85 268.25 71.05 Z"/>
</g>

<g id="Layer0_0_MEMBER_4_FILL">
<path fill="#30CBD2" stroke="none" d="
M 305.6 44.2
L 304.85 45
Q 294.9 56.05 281.45 53.85 271.85 52.3 256.85 42.55 254.55 41 251.05 41.4 249.15 46.45 249.15 51.7 249.15 54.1 249.55 56.65 254.35 55.75 259.3 56.4 264.25 56.9 269.7 60.85 272.75 63.1 278.85 67.8 285.5 72.4 292.6 69.75 295.7 68.55 304.65 62.15 306.6 57.1 306.6 51.7 306.6 47.9 305.6 44.2 Z"/>
</g>

<g id="Layer0_0_MEMBER_5_FILL">
<path fill="#49E5E4" stroke="none" d="
M 298.1 31.25
Q 290.65 38.55 287.4 40.4 280.85 44.2 274.75 40.9 272.5 39.4 268.8 35 265.55 31.2 263.4 30.35 261.75 29.65 259.9 29.25 253.85 34.15 251.05 41.4 254.55 41 256.85 42.55 271.85 52.3 281.45 53.85 294.9 56.05 304.85 45
L 305.6 44.2
Q 303.55 36.7 298.1 31.25 Z"/>
</g>

<g id="Layer0_0_MEMBER_6_FILL">
<path fill="#A9F2FE" stroke="none" d="
M 283.7 27.8
Q 287.3 29.05 290.2 27.9
L 291.95 26.65
Q 286.1 23.25 279.05 22.95
L 279.65 24.65
Q 280.3 26.6 283.7 27.8 Z"/>
</g>

<g id="Layer0_0_MEMBER_7_FILL">
<path fill="#88ECF6" stroke="none" d="
M 291.95 26.65
L 290.2 27.9
Q 287.3 29.05 283.7 27.8 280.3 26.6 279.65 24.65
L 279.05 22.95 277.85 22.95
Q 267.8 22.95 259.9 29.25 261.75 29.65 263.4 30.35 265.55 31.2 268.8 35 272.5 39.4 274.75 40.9 280.85 44.2 287.4 40.4 290.65 38.55 298.1 31.25 295.25 28.5 291.95 26.65 Z"/>
</g>

<g id="Layer0_0_MEMBER_8_MEMBER_0_FILL">
<path fill="#156F28" stroke="none" d="
M 281.85 69.85
Q 281.9 71.2 282.45 71.1 283.6 70.85 283.95 70.7 284.85 70.25 285.55 69 285.95 68.35 287.25 66.6 288.1 65.4 288.3 64.8
L 288.4 64.4
Q 285 65.9 281.25 65.4 281.45 67.6 281.7 68.05 281.85 68.25 281.85 69.85 Z"/>
</g>

<g id="Layer0_0_MEMBER_8_MEMBER_1_FILL">
<path fill="#128326" stroke="none" d="
M 279.9 58.65
Q 279.65 59.3 279.6 60.05 279.5 61.1 280.05 62.15 280.35 62.7 280.9 63.6 281.05 63.95 281.25 65.4 285 65.9 288.4 64.4 288.4 64.3 288.15 62.1 287.95 60.55 288.35 59.85 288.8 59.2 289.35 58.9 289.95 58.65 290.3 58
L 291.05 56.75
Q 291 55.95 290.7 55.25
L 289.7 55.4
Q 289.4 55.45 289.2 55.4 281.1 56.9 272 52.8 271.4 54.2 272.1 55.55 272.6 56.55 273.95 57.3 275.6 58.2 277.15 57.75 278.55 57.35 278.9 57.7 279.1 57.9 279.5 58.35 279.95 58.5 279.9 58.65 Z"/>
</g>

<g id="Layer0_0_MEMBER_8_MEMBER_2_FILL">
<path fill="#189F34" stroke="none" d="
M 286 48.7
Q 285.9 48.6 284.3 48.7 282.3 48.85 282 48.85 281.5 48.85 280.95 47.9 280.3 46.8 280.1 46.7
L 279.45 46.3
Q 278.1 47.2 276.7 47.4
L 276.1 47.5
Q 275.7 47.6 275.4 48.25 275.2 48.7 275.2 49.05 273.65 49.8 272.55 51.7 272.1 52.4 272 52.8 281.1 56.9 289.2 55.4 288.8 55.25 288.25 54.6 287.45 53.6 287.35 53.5 286.95 53.05 286.5 50.85 286.05 48.75 286 48.7 Z"/>
</g>

<g id="Layer0_0_MEMBER_8_MEMBER_3_FILL">
<path fill="#189F34" stroke="none" d="
M 306.15 52
Q 305.95 51.7 306.2 51.5
L 306.7 51.25
Q 306.65 48.05 305.95 45.15 301.55 49.9 297 52.5 297.2 54.85 297.45 55
L 297.8 55.15
Q 298.25 56.45 299.1 56.9
L 299.1 56
Q 299.1 54.1 299.2 53.75 299.65 52.55 300 52.1 300.9 51.1 301.15 51.1 301.4 51.1 301.9 52.25 302.2 52.55 302.6 53.35 302.75 53.95 303.25 54.05
L 303.5 54.1
Q 303.75 55.3 304.15 56.25
L 304.2 56.55
Q 304.25 56.85 304.2 59.1 304.25 59.45 304.5 60 304.8 60.75 305.05 60.9
L 305.15 60.95 305.9 58.35 305.45 57.25
Q 305.2 56.05 305 55.6 304.65 55.05 304.45 54.75 304.15 54.2 304.5 54.2 305.75 54.2 305.95 54.8
L 306.15 55.35 306.45 55.4
Q 306.65 53.4 306.65 52.45 306.3 52.15 306.15 52 Z"/>
</g>

<g id="Layer0_0_MEMBER_8_MEMBER_4_FILL">
<path fill="#1BB83E" stroke="none" d="
M 276.15 44.25
L 276.05 44.5 275.9 44.75
Q 276.1 46.3 276.9 46.75
L 277.15 46.7
Q 277.35 46.65 278.1 46.1 278.85 45.5 278.9 45.4 279 45.05 279.55 44.7
L 277.3 44.1
Q 276.95 44.25 276.15 44.25 Z"/>
</g>

<g id="Layer0_0_MEMBER_8_MEMBER_5_FILL">
<path fill="#76FD6A" stroke="none" d="
M 296.4 32.1
Q 296.15 31.65 295.8 31.7 292.85 32.6 292.65 32.8 291.8 33.65 291.8 34.05 291.8 34.25 291.95 34.65 292.05 34.9 292 34.9
L 291.8 34.85
Q 291.5 34.85 290.95 33.8
L 290.3 33.8
Q 289.65 34.55 289.75 35.1 289.85 35.65 289.45 35.75
L 288.2 35.85
Q 287.3 35.85 286.3 36.65
L 286.2 36.85 286.05 37
Q 285.4 37.1 285.1 36.7 284.85 36.35 286 35.9
L 285.7 35.7
Q 285.35 35.45 284.45 35.15 283.35 34.7 282.95 34.85
L 282.35 35
Q 280.4 35.8 280.05 36.25
L 279.55 37.25
Q 285.15 38.8 289.75 37.75 294.8 36.45 299.25 33.15
L 298.85 32.95
Q 297.4 33.35 297.15 33.4 296.6 33.5 296.6 32.9 296.6 32.45 296.4 32.1 Z"/>
</g>

<g id="Layer0_0_MEMBER_8_MEMBER_6_FILL">
<path fill="#56DB46" stroke="none" d="
M 300.6 33.9
Q 299.65 33.35 299.25 33.15 294.8 36.45 289.75 37.75 285.15 38.8 279.55 37.25
L 279.2 38 279.25 38.5
Q 279.6 40.35 279.15 40.5
L 278.7 40.7
Q 277.65 41.6 277.35 42.25 277.1 42.9 277.55 43.55 277.8 43.85 277.3 44.1
L 279.55 44.7
Q 279.85 44.4 280 44.45 280.15 44.45 280.6 44.9 283 45.25 284.85 45.05 288.1 44.55 293.75 41.65 300.7 38.05 302.85 37.3 301.95 35.75 300.6 33.9 Z"/>
</g>

<g id="Layer0_0_MEMBER_8_MEMBER_7_FILL">
<path fill="#1BB83E" stroke="none" d="
M 287 47.75
L 286.8 48
Q 287.15 50.05 288.25 52.7
L 288.55 52.85
Q 288.7 52.95 289.05 53.85 289.35 54.65 289.5 54.6 289.65 54.6 290.4 54.5 291.15 54.35 291.35 54.05
L 291.75 53.6
Q 292.45 52.85 292.85 52.15 293.2 51.4 293 51.15 292.8 50.9 292.25 50.95 291.65 51 291.05 51.3
L 290.95 50.95
Q 290.6 50.25 290.4 49.8 290.05 48.9 290.45 48.85 290.9 48.8 292.35 49.85 293.55 50.6 294.1 50.6 294.5 50.6 295 50.75 295.55 50.9 295.6 51.1
L 295.7 51.35
Q 296.1 51.75 296.6 51.05
L 296.8 51.35 297 52.5
Q 301.55 49.9 305.95 45.15 304.95 40.95 302.85 37.3 300.7 38.05 293.75 41.65 288.1 44.55 284.85 45.05 283 45.25 280.6 44.9
L 281.5 45.8
Q 281.65 45.95 281.9 46.35 282.15 46.7 282.7 46.55
L 283.55 46.4
Q 284 46.3 284.35 46.35 284.7 46.4 284.75 46.55 284.95 46.95 286.15 47.05
L 286.5 46.95
Q 286.8 46.85 287 47.2 287.15 47.55 287 47.75 Z"/>
</g>

<g id="Layer0_0_MEMBER_8_MEMBER_8_FILL">
<path fill="#189F34" stroke="none" d="
M 249.75 46.25
Q 249.45 47.75 249.4 48.6 249.9 49.4 251 50.85 251.2 51.25 251.2 51.9 251.2 52.55 251.3 52.8 251.85 54.2 251.9 54.25 252.15 54.35 252.55 54.45 253.1 54.5 253.25 54.35 253.45 54.15 253.85 54.15 254.2 54.15 254.45 54.25 255.35 54.5 255.6 55.35 255.7 55.9 255.7 55.95 255.8 56.1 256.35 56.25 256.8 56.35 256.45 55.5 256.05 54.5 256.2 54.3 256.4 54.1 256.75 53.8 256.95 53.65 256.55 53.5 254.75 53 254.55 52.5 254.2 51.8 253.95 50.45 253.8 49.65 253.8 49.35 253.75 48.8 254.05 48.5 254.85 47.8 255.7 48
L 256.45 48.2
Q 256.95 48.45 257.2 48.8 257.45 49.15 257.35 49.35
L 257.85 50
Q 258.05 50.25 258.35 50.85 258.5 51.15 258.6 51 258.7 50.7 258.7 49 258.65 48.75 258.7 48.55 258.8 48.25 259.35 47.75 260.25 46.95 260.85 46.7 260.95 46.65 261.5 46.5
L 259.65 45.05
Q 258 43.85 255.15 44.2 252.25 44.55 249.75 46.25 Z"/>
</g>

<g id="Layer0_0_MEMBER_8_MEMBER_9_FILL">
<path fill="#56DB46" stroke="none" d="
M 257.85 34.7
Q 257.2 34.4 255.15 34.15 253.7 36.05 252.55 38.25 253.7 38.2 255.75 38.35 258 38.55 258.85 38.55 262.2 38.25 266.45 39.7 266.4 39.1 266.3 38.75 266.15 38.1 265.75 37.9 265 37.55 263.3 37.75 261.75 38.05 262.15 37.2 262.5 36.5 263.05 36.1 263.8 35.5 264.5 35.95 265.55 36.65 266.3 37.65 268 38.7 268.25 38.7 268.35 38.7 268.95 38.9 269.45 39.05 269.7 38.95 269.9 38.9 270.5 38.8 271.1 38.65 271.25 38.2 271.3 37.8 271.35 37.65 271.4 37.45 272.15 36.7 272.8 36.1 273.35 35.9 273.95 35.6 274.25 35.35 269.5 33.3 267.15 32.45 266.95 33.1 266.5 33.1 265 33 264.95 33 263.8 32.8 263.2 32.2 262.55 31.6 261.55 31.35 260.65 31.15 260.35 31.35 259.9 31.55 259.65 31.7 259.2 31.9 259.2 32.05 259.2 32.15 259.55 32.65 259.8 33.1 259.7 33.15
L 259.5 33.3
Q 258.75 33.3 258.15 33.65
L 257.85 33.65
Q 258.45 34.85 257.85 34.7 Z"/>
</g>

<g id="Layer0_0_MEMBER_8_MEMBER_10_FILL">
<path fill="#76FD6A" stroke="none" d="
M 274.5 35.15
Q 275.85 33.8 275.85 32.95 276.1 31.6 275.95 31.2 276 30.8 276 30.6 275.95 30.3 275.35 30.3 271.55 30.45 271.1 30.4 270.7 30.35 269.1 30.8 267.4 31.3 267.3 31.55
L 267.15 32.45
Q 269.5 33.3 274.25 35.35
L 274.5 35.15 Z"/>
</g>

<g id="Layer0_0_MEMBER_8_MEMBER_11_FILL">
<path fill="#1BB83E" stroke="none" d="
M 252.55 38.25
Q 250.5 41.95 249.75 46.25 252.25 44.55 255.15 44.2 258 43.85 259.65 45.05
L 261.5 46.5
Q 262.15 46.3 262.3 46.05 262.7 45.6 262.45 44.65 262.3 44.15 262.3 44.1 262.4 43.9 263.3 43.7 265.6 43.2 265.7 43
L 266.3 41.4
Q 266.55 40.8 266.45 39.7 262.2 38.25 258.85 38.55 258 38.55 255.75 38.35 253.7 38.2 252.55 38.25 Z"/>
</g>

<g id="Layer0_0_MEMBER_8_MEMBER_12_FILL">
<path fill="#156F28" stroke="none" d="
M 269 61.8
L 269.35 61.3
Q 263.65 58.8 260.45 58.1 259.25 57.8 257.85 57.8
L 258 59.05 257.65 59.25
Q 257.4 59.35 257 59.85 256.6 60.3 256.45 60.55 256.4 60.8 256.45 61.3 256.5 61.85 256.65 62.15 257.15 63.3 257.8 64.15 257.85 64.25 258.05 64.7 258.25 65.1 258.5 65.1 258.85 65.1 259.3 65.3 259.8 65.45 259.95 65.65 260.15 65.95 260.45 66.55 260.75 67.3 260.7 67.65 261.75 67.55 263.55 67.7 265.7 67.85 266.15 67.85
L 266.5 68.05
Q 266.45 67.85 266.7 67.55 266.8 67.4 267.6 67.25 268.25 67.15 268.3 66.55 268.35 66.35 268.6 65.55 268.75 65.15 268.55 64.6 268.3 63.9 268.2 63.7 268.1 63.4 268.2 63.05 268.25 62.65 268.4 62.5 268.5 62.35 269 61.8 Z"/>
</g>

<g id="Layer0_0_MEMBER_8_MEMBER_13_FILL">
<path fill="#128326" stroke="none" d="
M 269.45 60.35
Q 269 59.35 267.75 58.9 267.25 58.75 266.45 58.75 265.6 58.75 265.3 58.65 264.25 58.4 263.95 57.3 263.7 56.35 263.7 56.25 263.5 55.8 263.15 55.55 262.85 55.35 261.7 55 260.6 54.7 260.45 54.6 259.9 54.15 259 54.35
L 258.6 54.5
Q 258.1 55.15 257.55 55.55
L 257.35 55.9
Q 257.25 56.05 257.05 56.3 256.95 56.45 256.9 56.65 257.65 56.55 257.75 57.05
L 257.85 57.8
Q 259.25 57.8 260.45 58.1 263.65 58.8 269.35 61.3 269.6 60.9 269.45 60.35 Z"/>
</g>

<g id="Layer0_0_MEMBER_8_MEMBER_14_FILL">
<path fill="#0E5D21" stroke="none" d="
M 266.15 67.85
Q 265.7 67.85 263.55 67.7 261.75 67.55 260.7 67.65
L 260.7 67.7
Q 260.25 68.85 260.25 70.25 260.25 70.4 260.5 72.9 260.55 73.2 261.35 73.9 262.15 74.6 262.15 74.65
L 261.85 75.45 263.45 76.45
Q 263.45 76.15 263.95 74.75 264.1 74.4 263.95 74.15 263.7 73.75 263.65 73.6 263.4 72.85 264.15 72.1
L 264.25 71.9 265.65 71 265.7 70.7
Q 265.75 70.45 266.55 69.9 266.9 69.6 266.95 69.35 267 69.1 266.8 68.65
L 266.5 68.05 266.15 67.85 Z"/>
</g>

<g id="Layer0_0_MEMBER_9_FILL">
<path fill="#000000" fill-opacity="0.2" stroke="none" d="
M 300.85 34.3
Q 295.1 26.75 286 24.1 287.15 28 287.15 32.15 287.15 44.1 278.75 52.5 270.35 60.95 258.45 60.95 254.25 60.95 250.35 59.8 253 68.9 260.55 74.65 268.25 80.5 277.95 80.5 289.85 80.5 298.25 72.05 306.7 63.6 306.7 51.7 306.7 42 300.85 34.3 Z"/>
</g>

<g id="Layer0_0_MEMBER_10_FILL">
<path fill="#FFFFFF" fill-opacity="0.6980392156862745" stroke="none" d="
M 7.5 0.7
Q 6.85 -0.15 5.35 0.05 3.85 0.2 2.35 1.35 0.9 2.5 0.3 3.9 -0.3 5.3 0.35 6.15 1 7 2.5 6.8 4 6.6 5.5 5.5 7 4.4 7.6 2.95 8.2 1.55 7.5 0.7 Z"/>
</g>
</defs>

<g transform="matrix( 10, 0, 0, 10, -1696,-99.75) ">
<use xlink:href="#Layer0_0_MEMBER_0_MEMBER_0_FILL"/>
</g>

<g transform="matrix( 10, 0, 0, 10, -2263.5,30.25) ">
<use xlink:href="#Layer0_0_MEMBER_0_MEMBER_1_FILL"/>
</g>

<g transform="matrix( 10, 0, 0, 10, -2263.5,30.25) ">
<use xlink:href="#Layer0_0_MEMBER_0_MEMBER_2_FILL"/>
</g>

<g transform="matrix( 10, 0, 0, 10, -2263.5,30.25) ">
<use xlink:href="#Layer0_0_MEMBER_0_MEMBER_3_FILL"/>
</g>

<g transform="matrix( 10, 0, 0, 10, -2263.5,30.25) ">
<use xlink:href="#Layer0_0_MEMBER_0_MEMBER_4_FILL"/>
</g>

<g transform="matrix( 10, 0, 0, 10, -2263.5,30.25) ">
<use xlink:href="#Layer0_0_MEMBER_0_MEMBER_5_FILL"/>
</g>

<g transform="matrix( 10, 0, 0, 10, -2263.5,30.25) ">
<use xlink:href="#Layer0_0_MEMBER_0_MEMBER_6_FILL"/>
</g>

<g transform="matrix( 10, 0, 0, 10, -2884,-255.25) ">
<use xlink:href="#Layer0_0_MEMBER_1_FILL"/>
</g>

<g transform="matrix( 10, 0, 0, 10, -2263.5,30.25) ">
<use xlink:href="#Layer0_0_MEMBER_2_FILL"/>
</g>

<g transform="matrix( 10, 0, 0, 10, -2263.5,30.25) ">
<use xlink:href="#Layer0_0_MEMBER_3_FILL"/>
</g>

<g transform="matrix( 10, 0, 0, 10, -2263.5,30.25) ">
<use xlink:href="#Layer0_0_MEMBER_4_FILL"/>
</g>

<g transform="matrix( 10, 0, 0, 10, -2263.5,30.25) ">
<use xlink:href="#Layer0_0_MEMBER_5_FILL"/>
</g>

<g transform="matrix( 10, 0, 0, 10, -2263.5,30.25) ">
<use xlink:href="#Layer0_0_MEMBER_6_FILL"/>
</g>

<g transform="matrix( 10, 0, 0, 10, -2263.5,30.25) ">
<use xlink:href="#Layer0_0_MEMBER_7_FILL"/>
</g>

<g transform="matrix( 10, 0, 0, 10, -2263.5,30.25) ">
<use xlink:href="#Layer0_0_MEMBER_8_MEMBER_0_FILL"/>
</g>

<g transform="matrix( 10, 0, 0, 10, -2263.5,30.25) ">
<use xlink:href="#Layer0_0_MEMBER_8_MEMBER_1_FILL"/>
</g>

<g transform="matrix( 10, 0, 0, 10, -2263.5,30.25) ">
<use xlink:href="#Layer0_0_MEMBER_8_MEMBER_2_FILL"/>
</g>

<g transform="matrix( 10, 0, 0, 10, -2263.5,30.25) ">
<use xlink:href="#Layer0_0_MEMBER_8_MEMBER_3_FILL"/>
</g>

<g transform="matrix( 10, 0, 0, 10, -2263.5,30.25) ">
<use xlink:href="#Layer0_0_MEMBER_8_MEMBER_4_FILL"/>
</g>

<g transform="matrix( 10, 0, 0, 10, -2263.5,30.25) ">
<use xlink:href="#Layer0_0_MEMBER_8_MEMBER_5_FILL"/>
</g>

<g transform="matrix( 10, 0, 0, 10, -2263.5,30.25) ">
<use xlink:href="#Layer0_0_MEMBER_8_MEMBER_6_FILL"/>
</g>

<g transform="matrix( 10, 0, 0, 10, -2263.5,30.25) ">
<use xlink:href="#Layer0_0_MEMBER_8_MEMBER_7_FILL"/>
</g>

<g transform="matrix( 10, 0, 0, 10, -2263.5,30.25) ">
<use xlink:href="#Layer0_0_MEMBER_8_MEMBER_8_FILL"/>
</g>

<g transform="matrix( 10, 0, 0, 10, -2263.5,30.25) ">
<use xlink:href="#Layer0_0_MEMBER_8_MEMBER_9_FILL"/>
</g>

<g transform="matrix( 10, 0, 0, 10, -2263.5,30.25) ">
<use xlink:href="#Layer0_0_MEMBER_8_MEMBER_10_FILL"/>
</g>

<g transform="matrix( 10, 0, 0, 10, -2263.5,30.25) ">
<use xlink:href="#Layer0_0_MEMBER_8_MEMBER_11_FILL"/>
</g>

<g transform="matrix( 10, 0, 0, 10, -2263.5,30.25) ">
<use xlink:href="#Layer0_0_MEMBER_8_MEMBER_12_FILL"/>
</g>

<g transform="matrix( 10, 0, 0, 10, -2263.5,30.25) ">
<use xlink:href="#Layer0_0_MEMBER_8_MEMBER_13_FILL"/>
</g>

<g transform="matrix( 10, 0, 0, 10, -2263.5,30.25) ">
<use xlink:href="#Layer0_0_MEMBER_8_MEMBER_14_FILL"/>
</g>

<g transform="matrix( 10, 0, 0, 10, -2263.5,30.25) ">
<use xlink:href="#Layer0_0_MEMBER_9_FILL"/>
</g>

<g transform="matrix( 10, 0, 0, 10, 366.5,318.75) ">
<use xlink:href="#Layer0_0_MEMBER_10_FILL"/>
</g>
</svg>
