<?xml version="1.0" standalone="no"?><!DOCTYPE svg PUBLIC "-//W3C//DTD SVG 1.1//EN" "http://www.w3.org/Graphics/SVG/1.1/DTD/svg11.dtd"><svg t="1642753823957" class="icon" viewBox="0 0 1024 1024" version="1.1" xmlns="http://www.w3.org/2000/svg" p-id="7231" xmlns:xlink="http://www.w3.org/1999/xlink" width="200" height="200"><defs><style type="text/css"></style></defs><path d="M199.143 336.285h137.143v-137.143h-137.143v137.143zM893.428 542h68.572v214.286h-68.572v-68.572h-68.572v-77.142h-68.572v-68.572h68.572v68.572h68.572v-68.572zM687.715 687.715h137.143v137.143h68.572v68.572h68.572v68.572h-137.143v-68.572h-68.572v-137.143h-68.572v68.572h-77.142v68.572h77.142v68.572h-145.714v-420h145.714v68.572h-77.142v145.714h77.142v-68.572zM62 962h411.428v-420h-411.428v420zM130.572 610.571h274.285v282.858h-274.285v-282.858zM199.143 824.857h137.143v-137.143h-137.143v137.143zM542 62v411.428h420v-411.428h-420zM893.428 404.857h-282.858v-274.285h282.858v274.285zM62 473.428h411.428v-411.428h-411.428v411.428zM130.572 130.572h274.285v274.285h-274.285v-274.285zM824.857 199.143h-137.143v137.143h137.143v-137.143z" p-id="7232" fill="#ffffff"></path></svg>