<?xml version="1.0" standalone="no"?><!DOCTYPE svg PUBLIC "-//W3C//DTD SVG 1.1//EN" "http://www.w3.org/Graphics/SVG/1.1/DTD/svg11.dtd"><svg t="1642754093510" class="icon" viewBox="0 0 1024 1024" version="1.1" xmlns="http://www.w3.org/2000/svg" p-id="9741" xmlns:xlink="http://www.w3.org/1999/xlink" width="200" height="200"><defs><style type="text/css"></style></defs><path d="M592.299 661.76c60.458-47.573 67.072-49.92 84.992-27.392 15.573 19.243 12.245 22.741-91.734 113.365-34.688 30.592-63.744 62.294-63.744 71.382 0 7.936-8.96 14.762-19.029 14.762-10.027 0-46.933 19.286-81.493 44.288-68.267 48.726-193.451 103.168-237.099 103.168-71.467 0-67.072-71.381 5.632-91.733 124.117-34.09 251.605-106.581 402.432-227.84zM545.45 461.141c14.506-5.717 39.125-7.978 54.826-5.589 15.574 1.11 51.371 5.675 80.427 9.045 128.512 14.806 224.64 132.694 214.613 259.627-5.546 70.23-24.576 106.539-81.578 158.635-89.515 81.536-214.699 121.216-257.11 82.688-27.989-26.112-50.304-81.707-41.344-103.211 5.547-15.915 10.07-15.915 41.344 1.152 70.4 36.267 171.008-2.261 229.12-87.296 58.155-86.187 33.494-180.267-46.933-180.267-29.056 0-40.235-6.741-51.37-31.701-21.334-44.16-63.745-46.379-111.83-4.48-223.53 196.053-431.488 302.592-478.421 245.93-30.166-36.223-6.742-54.357 117.333-90.666 42.539-12.544 112.939-49.835 191.147-103.168 111.786-74.752 124.074-86.059 119.68-112.17-4.523-21.505 0-30.593 20.096-38.529zM354.304 50.86c60.33-12.459 257.024-10.24 307.37 3.328 95.062 25.002 110.635 41.941 138.667 160 16.726 70.272 15.616 101.973-4.522 150.698-22.315 55.595-64.854 69.12-201.216 68.011-109.611-1.11-111.787 0-130.816 29.44-23.51 38.443-118.571 114.432-160.982 130.347C174.293 639.06 102.7 643.627 91.52 607.36c-11.136-35.2 13.397-56.704 66.005-56.704 65.835 0 174.336-44.245 205.611-82.773 12.245-13.568 4.437-17.067-48.085-21.547-70.4-5.59-95.019-28.33-108.374-99.712-12.373-61.184-10.069-168.832 2.219-193.835 13.483-23.722 50.347-29.44 62.635-9.045 4.522 7.936 7.85 49.835 8.96 95.232 2.218 124.672 8.96 130.39 172.16 124.672 72.704-2.347 152.021-4.565 178.858-5.717 71.51 0 96.128-30.592 87.211-109.91-7.85-71.338-23.552-100.821-62.677-115.626-34.56-14.763-231.382-19.243-309.59-6.827-58.112 7.979-59.221 7.979-59.221-20.395 0-33.92 12.245-43.008 67.072-54.314z m-2.347 167.68c7.851-9.046 50.39-13.526 133.035-12.502 158.72 1.195 150.827-1.152 146.432 35.158l-3.328 30.592-139.776 1.109c-125.184 0-139.776-2.219-143.104-20.395-2.176-11.306 1.11-25.984 6.741-33.92z" fill="#D81E06" p-id="9742"></path></svg>