<?xml version="1.0" standalone="no"?><!DOCTYPE svg PUBLIC "-//W3C//DTD SVG 1.1//EN" "http://www.w3.org/Graphics/SVG/1.1/DTD/svg11.dtd"><svg t="1642765036010" class="icon" viewBox="0 0 1024 1024" version="1.1" xmlns="http://www.w3.org/2000/svg" p-id="14268" xmlns:xlink="http://www.w3.org/1999/xlink" width="200" height="200"><defs><style type="text/css"></style></defs><path d="M726.869333 113.777778c-130.616889 0-210.090667 102.172444-210.090666 102.172444S448.682667 113.777778 306.688 113.777778C164.750222 113.777778 56.888889 193.251556 56.888889 386.275556c0 272.554667 459.889778 567.808 459.889778 567.808s448.568889-312.32 448.568889-562.062223C965.347556 187.505778 834.730667 113.777778 726.869333 113.777778M516.778667 885.930667s-403.114667-278.186667-403.114667-499.598223c0-141.937778 96.540444-221.468444 204.401778-221.468444s198.712889 119.239111 198.712889 119.239111 107.918222-119.239111 204.401777-119.239111c96.540444 0 193.080889 73.841778 193.080889 227.100444-5.688889 215.779556-397.482667 493.966222-397.482666 493.966223" fill="#e6e6e6" p-id="14269"></path></svg>